# xmcd
#
# Track frame offsets:
#	150
#	11492
#	29162
#	41223
#	51762
#	61927
#	79782
#	97125
#	110227
#	124753
#
# Disc length: 1743 seconds
#
# Revision: 1
# Processed by: cddbd v1.5.2PL0 Copyright (c) Steve Scherf et al.
# Submitted via: audiograbber 1.83.01
#
DISCID=8d06cd0a
DTITLE=Emmylou Harris - The Ballad Of Sally Rose CD2 Demos
DYEAR=2018
DGENRE=Country
TTITLE0=Timberline
TTITLE1=The Sweetheart Of The Radio
TTITLE2=Sweet Chariot
TTITLE3=The Ballad Of Sally Rose
TTITLE4=Heart To Heart
TTITLE5=Woman Walk The Line
TTITLE6=White Line
TTITLE7=Diamond In My Crown
TTITLE8=Rhythm Guitar
TTITLE9=Bad News
EXTD=
EXTT0=
EXTT1=
EXTT2=
EXTT3=
EXTT4=
EXTT5=
EXTT6=
EXTT7=
EXTT8=
EXTT9=
PLAYORDER=
